<svg width="366" height="74" viewBox="0 0 366 74" fill="none" xmlns="http://www.w3.org/2000/svg">
<rect y="69.8409" width="366" height="4" fill="#E9E9E9"/>
<path d="M301.963 25.9324C302.485 22.3183 302.988 18.7041 303.472 15.09C303.994 11.4758 304.497 7.8617 304.981 4.24756C305.168 2.83171 305.54 1.80708 306.099 1.17367C306.658 0.540266 307.701 0.223563 309.229 0.223563C311.166 0.223563 313.16 0.223563 315.209 0.223563C317.295 0.186303 319.363 0.186303 321.413 0.223563C323.462 0.223563 325.418 0.223563 327.281 0.223563C328.995 0.260821 330.485 0.540265 331.752 1.06189C333.019 1.54626 333.95 2.3846 334.546 3.57689C335.143 4.76919 335.31 6.38996 335.049 8.43922C334.565 11.7926 333.429 14.1771 331.64 15.593C329.889 16.9716 327.709 17.6423 325.101 17.605C322.903 17.5677 320.611 17.5491 318.227 17.5491C315.842 17.5491 313.551 17.5491 311.353 17.5491C311.539 16.1705 311.669 15.1645 311.744 14.5311C311.856 13.8604 312.005 13.432 312.191 13.2457C312.377 13.0221 312.731 12.9103 313.253 12.9103C313.998 12.9103 314.855 12.9103 315.824 12.9103C316.83 12.9103 317.854 12.9103 318.898 12.9103C319.941 12.9103 320.928 12.9103 321.86 12.9103C322.493 12.9103 323.071 12.7799 323.592 12.5191C324.151 12.221 324.617 11.7553 324.989 11.1219C325.362 10.4885 325.604 9.66878 325.716 8.66278C325.902 7.47048 325.828 6.59489 325.492 6.036C325.157 5.43985 324.505 5.10452 323.536 5.03C322.53 4.99274 321.543 4.97411 320.574 4.97411C319.643 4.97411 318.711 4.97411 317.78 4.97411C316.848 4.97411 315.973 4.99274 315.153 5.03C314.929 5.03 314.669 5.12315 314.371 5.30945C314.11 5.49574 313.961 5.73793 313.923 6.036C313.439 9.35207 312.955 12.6681 312.47 15.9842C312.023 19.263 311.576 22.5791 311.129 25.9324H301.963Z" fill="#E9E9E9"/>
<path d="M295.283 13.1898C295.022 14.9409 294.724 16.5058 294.388 17.8844C294.053 19.263 293.55 20.4739 292.879 21.5172C292.209 22.5232 291.277 23.3615 290.085 24.0322C288.893 24.7029 287.328 25.2059 285.39 25.5412C283.453 25.8765 280.994 26.0442 278.013 26.0442C275.032 26.0442 272.592 25.8765 270.692 25.5412C268.829 25.2059 267.394 24.7029 266.388 24.0322C265.419 23.3615 264.767 22.5418 264.432 21.5731C264.134 20.6043 264.022 19.4679 264.097 18.1639C264.171 16.8598 264.32 15.4067 264.544 13.8045L265.885 4.35932C266.071 3.20428 266.239 2.32869 266.388 1.73254C266.537 1.13639 266.854 0.745169 267.338 0.558873C267.86 0.335319 268.698 0.223541 269.853 0.223541H275.666L273.486 15.593C273.3 17.1579 273.337 18.3315 273.598 19.114C273.896 19.8964 274.473 20.418 275.33 20.6789C276.225 20.9024 277.38 21.0142 278.795 21.0142C281.068 21.0142 282.708 20.623 283.714 19.8405C284.757 19.0581 285.428 17.6609 285.726 15.6489L287.905 0.223541H293.55C294.78 0.223541 295.618 0.335319 296.065 0.558873C296.512 0.745169 296.736 1.13639 296.736 1.73254C296.736 2.32869 296.661 3.20428 296.512 4.35932L295.283 13.1898Z" fill="#E9E9E9"/>
<path d="M240.742 17.2697C240.742 17.2697 240.37 17.2697 239.625 17.2697C238.917 17.2697 238.004 17.2883 236.886 17.3256C235.768 17.3256 234.632 17.3256 233.477 17.3256L232.247 25.9324H223.081L226.211 3.63279C226.36 2.55227 226.696 1.71394 227.217 1.11779C227.776 0.521647 228.801 0.223573 230.291 0.223573C230.85 0.223573 231.688 0.223573 232.806 0.223573C233.961 0.186314 235.247 0.167684 236.662 0.167684C238.116 0.167684 239.625 0.167684 241.189 0.167684C242.754 0.130425 244.245 0.130425 245.66 0.167684C247.076 0.167684 248.325 0.186314 249.405 0.223573C250.486 0.223573 251.249 0.242203 251.696 0.279462C253.671 0.465758 255.087 1.08054 255.944 2.12379C256.801 3.12979 257.08 4.78783 256.782 7.0979C256.447 9.18442 256.056 10.712 255.609 11.6808C255.162 12.6123 254.565 13.3388 253.82 13.8604C253.522 14.0467 253.131 14.1958 252.647 14.3076C252.162 14.4193 251.659 14.4752 251.138 14.4752L251.082 14.6988C251.343 14.6988 251.622 14.6988 251.92 14.6988C252.255 14.6988 252.535 14.7174 252.758 14.7547C253.69 14.941 254.323 15.2577 254.659 15.7048C255.031 16.1146 255.236 16.6176 255.273 17.2138C255.311 17.7727 255.273 18.3502 255.162 18.9463L254.491 23.8646C254.379 24.5725 254.379 25.0941 254.491 25.4294C254.603 25.7275 254.677 25.8952 254.714 25.9324H247.84C246.909 25.9324 246.182 25.7834 245.66 25.4853C245.176 25.1873 244.99 24.5538 245.102 23.5851L245.66 19.8964C245.847 18.7414 245.698 18.0149 245.213 17.7168C244.729 17.4187 243.853 17.2697 242.587 17.2697H240.742ZM234.092 12.9103C234.464 12.9103 235.06 12.929 235.88 12.9662C236.737 12.9662 237.65 12.9662 238.619 12.9662C239.625 12.9662 240.556 12.9662 241.413 12.9662C242.27 12.9662 242.885 12.9662 243.257 12.9662C244.151 12.9662 244.971 12.6868 245.716 12.1279C246.499 11.5317 246.983 10.4326 247.169 8.83045C247.356 7.71268 247.3 6.83709 247.002 6.20368C246.704 5.57027 246.126 5.21631 245.269 5.14179C244.748 5.03001 244.04 4.97412 243.145 4.97412C242.289 4.97412 241.376 4.97412 240.407 4.97412C239.475 4.97412 238.619 4.99275 237.836 5.03001C237.054 5.03001 236.476 5.03001 236.104 5.03001C236.029 5.03001 235.843 5.0859 235.545 5.19768C235.284 5.30946 235.116 5.5889 235.042 6.03601L234.092 12.9103Z" fill="#E9E9E9"/>
<path d="M198.695 25.9883C197.316 25.9883 195.956 25.9883 194.615 25.9883C193.273 25.9883 191.969 25.9697 190.702 25.9324C189.436 25.9324 188.206 25.9324 187.014 25.9324C185.859 25.9324 184.797 25.9324 183.828 25.9324L186.846 4.35936C187.032 2.90625 187.386 1.86299 187.908 1.22958C188.467 0.596175 189.529 0.260842 191.094 0.223583C192.062 0.223583 193.106 0.223583 194.223 0.223583C195.378 0.186324 196.571 0.167694 197.8 0.167694C199.03 0.167694 200.259 0.167694 201.489 0.167694C202.756 0.167694 203.985 0.167694 205.178 0.167694C207.749 0.204954 209.891 0.428509 211.605 0.83836C213.319 1.24821 214.642 1.93751 215.573 2.90625C216.504 3.83773 217.082 5.16043 217.306 6.87436C217.566 8.55102 217.51 10.6934 217.138 13.3016C216.765 16.0588 216.151 18.2757 215.294 19.9523C214.474 21.629 213.356 22.9145 211.94 23.8087C210.562 24.6656 208.792 25.2432 206.631 25.5412C204.47 25.8393 201.824 25.9883 198.695 25.9883ZM199.701 21.3496C201.079 21.3496 202.253 21.2005 203.222 20.9025C204.19 20.6044 204.991 20.1386 205.625 19.5052C206.295 18.8718 206.817 18.0521 207.19 17.0461C207.562 16.0029 207.86 14.7547 208.084 13.3016C208.345 11.3641 208.419 9.81783 208.307 8.6628C208.233 7.50776 207.953 6.6508 207.469 6.09191C206.985 5.53302 206.277 5.17906 205.345 5.03002C204.414 4.84373 203.24 4.75058 201.824 4.75058C201.452 4.75058 201.023 4.75058 200.539 4.75058C200.055 4.75058 199.552 4.76921 199.03 4.80647C198.508 4.80647 198.005 4.80647 197.521 4.80647C197.074 4.80647 196.664 4.8251 196.291 4.86236C196.18 5.04865 196.068 5.29084 195.956 5.58891C195.844 5.84973 195.751 6.22232 195.677 6.70669L193.609 21.2937C193.944 21.2937 194.373 21.2937 194.894 21.2937C195.416 21.2937 195.956 21.3123 196.515 21.3496C197.111 21.3496 197.689 21.3496 198.247 21.3496C198.806 21.3496 199.291 21.3496 199.701 21.3496Z" fill="#E9E9E9"/>
<path d="M143.483 25.9324L146.613 3.35332C146.762 2.49635 146.93 1.84432 147.116 1.39721C147.303 0.950095 147.619 0.652021 148.066 0.502985C148.551 0.316689 149.277 0.223541 150.246 0.223541H158.909L168.801 16.6549L168.913 17.9403L171.372 0.223541H178.135C178.06 0.298059 177.967 0.540244 177.855 0.950096C177.781 1.32269 177.706 1.75117 177.632 2.23554C177.594 2.68265 177.538 3.0925 177.464 3.46509L174.725 23.1939C174.539 24.4234 174.166 25.1872 173.608 25.4853C173.049 25.7834 172.08 25.9324 170.701 25.9324H162.821L152.649 9.16576L152.593 7.76853L150.022 25.9324H143.483Z" fill="#E9E9E9"/>
<path d="M103.609 25.9324L115.513 4.58288C116.333 3.12977 117.357 2.012 118.587 1.22955C119.816 0.409851 121.642 0 124.064 0C126.002 0 127.529 0.372591 128.647 1.11778C129.765 1.86296 130.529 3.018 130.938 4.58288L136.863 25.9324H126.97L125.349 20.1759H113.725L110.595 25.9324H103.609ZM115.625 16.6549H124.12L122.22 8.83043C122.182 8.53236 122.089 8.27155 121.94 8.04799C121.828 7.78718 121.586 7.65677 121.214 7.65677C120.804 7.65677 120.506 7.78718 120.319 8.04799C120.133 8.27155 119.966 8.53236 119.816 8.83043L115.625 16.6549Z" fill="#E9E9E9"/>
<path d="M87.4908 0.223541L84.5846 21.126H101.463L100.848 25.9324H74.6923L77.8779 3.24154C77.9897 2.57087 78.1015 2.01198 78.2133 1.56487C78.3623 1.11776 78.6604 0.782429 79.1075 0.558873C79.5918 0.335319 80.337 0.223541 81.343 0.223541H87.4908Z" fill="#E9E9E9"/>
<path d="M333.831 55.7957C334.726 56.2056 335.881 56.5223 337.297 56.7458C338.75 56.9321 340.24 57.0439 341.768 57.0811C343.333 57.1184 344.711 57.137 345.903 57.137C346.351 57.137 346.909 57.137 347.58 57.137C348.288 57.137 348.866 57.1184 349.313 57.0811C350.319 57.0811 351.176 56.988 351.884 56.8017C352.629 56.5781 353.206 56.2428 353.616 55.7957C354.063 55.3486 354.343 54.7152 354.454 53.8955C354.566 53.2621 354.51 52.7777 354.287 52.4424C354.1 52.0698 353.765 51.8276 353.281 51.7158C352.796 51.5668 352.163 51.4923 351.381 51.4923C350.971 51.4923 350.486 51.4923 349.927 51.4923C349.406 51.4923 348.735 51.4923 347.915 51.4923C347.096 51.4923 346.052 51.4923 344.786 51.4923C343.556 51.4923 342.345 51.4364 341.153 51.3246C339.961 51.2128 338.899 50.952 337.967 50.5422C337.073 50.095 336.402 49.4057 335.955 48.4743C335.508 47.5055 335.415 46.1828 335.676 44.5062C335.937 42.4942 336.477 40.9293 337.297 39.8115C338.153 38.6565 339.253 37.7995 340.594 37.2406C341.935 36.6817 343.482 36.3278 345.233 36.1787C346.984 36.0297 348.921 35.9552 351.045 35.9552C352.312 35.9552 353.672 35.9738 355.125 36.0111C356.578 36.0483 357.938 36.1042 359.205 36.1787C360.509 36.2532 361.496 36.3837 362.167 36.5699C363.434 36.6445 364.347 36.9798 364.906 37.5759C365.502 38.1721 365.744 38.9173 365.632 39.8115C365.632 39.9605 365.595 40.2213 365.52 40.5939C365.483 40.9293 365.446 41.2646 365.409 41.5999C365.371 41.9353 365.334 42.1216 365.297 42.1588C365.073 41.898 364.57 41.6931 363.788 41.5441C363.043 41.3578 362.13 41.2273 361.049 41.1528C360.006 41.0783 358.963 41.0224 357.92 40.9852C356.914 40.9479 356.038 40.9293 355.293 40.9293H350.207C349.164 40.9293 348.288 41.0224 347.58 41.2087C346.909 41.3578 346.369 41.6372 345.959 42.0471C345.587 42.4569 345.345 43.0344 345.233 43.7796C345.158 44.3758 345.195 44.8601 345.345 45.2327C345.494 45.568 345.81 45.8102 346.295 45.9593C346.779 46.1083 347.412 46.1828 348.195 46.1828C350.468 46.1828 352.275 46.1828 353.616 46.1828C354.995 46.1828 355.889 46.1828 356.299 46.1828C358.087 46.1828 359.633 46.3319 360.938 46.6299C362.242 46.928 363.192 47.5987 363.788 48.6419C364.421 49.6852 364.57 51.2873 364.235 53.4484C363.937 55.4976 363.285 57.137 362.279 58.3666C361.31 59.5589 360.081 60.4345 358.59 60.9934C357.1 61.5523 355.386 61.8876 353.448 61.9994C351.623 62.1111 349.909 62.167 348.307 62.167C346.742 62.167 345.046 62.167 343.221 62.167C341.768 62.1298 340.426 62.0553 339.197 61.9435C337.967 61.869 336.905 61.7199 336.011 61.4964C335.117 61.2355 334.446 60.9002 333.999 60.4904C333.552 60.0433 333.366 59.4657 333.44 58.7578L333.831 55.7957Z" fill="#E9E9E9"/>
<path d="M293.654 61.8876L296.784 39.3085C296.933 38.4515 297.101 37.7995 297.287 37.3524C297.473 36.9053 297.79 36.6072 298.237 36.4582C298.721 36.2719 299.448 36.1787 300.417 36.1787H309.079L318.972 52.61L319.084 53.8955L321.543 36.1787H328.305C328.231 36.2532 328.138 36.4954 328.026 36.9053C327.951 37.2779 327.877 37.7063 327.802 38.1907C327.765 38.6378 327.709 39.0477 327.635 39.4203L324.896 59.149C324.71 60.3786 324.337 61.1424 323.778 61.4405C323.219 61.7385 322.251 61.8876 320.872 61.8876H312.992L302.82 45.1209L302.764 43.7237L300.193 61.8876H293.654Z" fill="#E9E9E9"/>
<path d="M253.779 61.8876L265.684 40.5381C266.503 39.0849 267.528 37.9672 268.758 37.1847C269.987 36.365 271.813 35.9552 274.235 35.9552C276.172 35.9552 277.7 36.3278 278.818 37.0729C279.935 37.8181 280.699 38.9732 281.109 40.5381L287.033 61.8876H277.141L275.52 56.131H263.895L260.766 61.8876H253.779ZM265.796 52.61H274.291L272.39 44.7856C272.353 44.4875 272.26 44.2267 272.111 44.0032C271.999 43.7423 271.757 43.6119 271.384 43.6119C270.975 43.6119 270.676 43.7423 270.49 44.0032C270.304 44.2267 270.136 44.4875 269.987 44.7856L265.796 52.61Z" fill="#E9E9E9"/>
<path d="M232.634 61.9435C231.256 61.9435 229.896 61.9435 228.554 61.9435C227.213 61.9435 225.909 61.9249 224.642 61.8876C223.375 61.8876 222.146 61.8876 220.954 61.8876C219.799 61.8876 218.737 61.8876 217.768 61.8876L220.786 40.3145C220.972 38.8614 221.326 37.8181 221.848 37.1847C222.407 36.5513 223.469 36.216 225.033 36.1787C226.002 36.1787 227.045 36.1787 228.163 36.1787C229.318 36.1415 230.511 36.1228 231.74 36.1228C232.97 36.1228 234.199 36.1228 235.429 36.1228C236.696 36.1228 237.925 36.1228 239.117 36.1228C241.688 36.1601 243.831 36.3837 245.545 36.7935C247.259 37.2034 248.581 37.8927 249.513 38.8614C250.444 39.7929 251.022 41.1156 251.245 42.8295C251.506 44.5062 251.45 46.6486 251.078 49.2567C250.705 52.0139 250.09 54.2308 249.233 55.9075C248.414 57.5842 247.296 58.8696 245.88 59.7638C244.501 60.6208 242.732 61.1983 240.571 61.4964C238.409 61.7945 235.764 61.9435 232.634 61.9435ZM233.64 57.3047C235.019 57.3047 236.193 57.1557 237.161 56.8576C238.13 56.5595 238.931 56.0938 239.565 55.4604C240.235 54.827 240.757 54.0073 241.129 53.0013C241.502 51.958 241.8 50.7098 242.024 49.2567C242.284 47.3192 242.359 45.773 242.247 44.618C242.173 43.4629 241.893 42.606 241.409 42.0471C240.924 41.4882 240.217 41.1342 239.285 40.9852C238.354 40.7989 237.18 40.7057 235.764 40.7057C235.391 40.7057 234.963 40.7057 234.479 40.7057C233.994 40.7057 233.491 40.7244 232.97 40.7616C232.448 40.7616 231.945 40.7616 231.461 40.7616C231.014 40.7616 230.604 40.7803 230.231 40.8175C230.119 41.0038 230.008 41.246 229.896 41.5441C229.784 41.8049 229.691 42.1775 229.616 42.6618L227.548 57.2488C227.884 57.2488 228.312 57.2488 228.834 57.2488C229.355 57.2488 229.896 57.2675 230.455 57.3047C231.051 57.3047 231.628 57.3047 232.187 57.3047C232.746 57.3047 233.23 57.3047 233.64 57.3047Z" fill="#E9E9E9"/>
</svg>
